<?xml version="1.0" standalone="no"?>
<!DOCTYPE svg PUBLIC "-//W3C//DTD SVG 20010904//EN"
 "http://www.w3.org/TR/2001/REC-SVG-20010904/DTD/svg10.dtd">
<svg version="1.0" xmlns="http://www.w3.org/2000/svg"
 width="260.000000pt" height="260.000000pt" viewBox="0 0 260.000000 260.000000"
 preserveAspectRatio="xMidYMid meet">
<metadata>
Created by potrace 1.11, written by Peter Selinger 2001-2013
</metadata>
<g transform="translate(0.000000,260.000000) scale(0.100000,-0.100000)"
fill="#000000" stroke="none">
<path d="M193 1705 c2 -434 7 -810 12 -835 36 -209 146 -403 294 -516 181
-138 371 -215 591 -240 75 -8 369 -8 409 0 14 4 46 8 71 11 136 17 367 109
477 192 195 146 287 291 328 517 27 153 30 223 30 941 l0 720 -357 0 c-235 0
-358 -3 -359 -10 0 -5 -2 -350 -3 -765 -2 -692 -3 -760 -20 -815 -44 -149
-137 -231 -288 -251 -143 -20 -231 7 -337 102 -59 53 -99 123 -116 204 -8 39
-11 275 -11 792 1 485 -2 738 -9 739 -5 1 -169 2 -363 3 l-353 1 4 -790z"/>
</g>
</svg>
